HIERARCHY
ROOT Bip001_Pelvis
{
  OFFSET 34.4345 95.6767 -26.8758
  CHANNELS 6 Xposition Yposition Zposition Zrotation Xrotation Yrotation
  JOINT Bip001_Spine
  {
    OFFSET 1.4188e-005 10.2191 -0.0116013
    CHANNELS 3 Zrotation Xrotation Yrotation
    JOINT Bip001_L_Thigh
    {
      OFFSET 11.0458 -10.2192 0.0116197
      CHANNELS 3 Zrotation Xrotation Yrotation
      JOINT Bip001_L_Calf
      {
        OFFSET -0.707118 -44.0221 0.360014
        CHANNELS 3 Zrotation Xrotation Yrotation
        JOINT Bip001_L_Foot
        {
          OFFSET -0.651902 -40.5938 -3.56146
          CHANNELS 3 Zrotation Xrotation Yrotation
          JOINT Bip001_L_Toe0
          {
            OFFSET 0.0530839 -10.2181 13.1504
            CHANNELS 3 Zrotation Xrotation Yrotation
            End Site
            {
              OFFSET -1.02532e-005 0 7.55606
            }
          }
        }
      }
    }
    JOINT Bip001_R_Thigh
    {
      OFFSET -11.0458 -10.2191 0.0115893
      CHANNELS 3 Zrotation Xrotation Yrotation
      JOINT Bip001_R_Calf
      {
        OFFSET 0.706994 -44.0221 0.35984
        CHANNELS 3 Zrotation Xrotation Yrotation
        JOINT Bip001_R_Foot
        {
          OFFSET 0.651786 -40.5938 -3.5613
          CHANNELS 3 Zrotation Xrotation Yrotation
          JOINT Bip001_R_Toe0
          {
            OFFSET -0.0531479 -10.2181 13.1504
            CHANNELS 3 Zrotation Xrotation Yrotation
            End Site
            {
              OFFSET -1.02894e-005 0 7.55606
            }
          }
        }
      }
    }
    JOINT Bip001_Spine1
    {
      OFFSET 1.87041e-005 14.5736 1.08638
      CHANNELS 3 Zrotation Xrotation Yrotation
      JOINT Bip001_Spine2
      {
        OFFSET 2.24614e-005 14.5058 -1.69078
        CHANNELS 3 Zrotation Xrotation Yrotation
        JOINT Bip001_Neck
        {
          OFFSET 2.20278e-005 15.3945 -0.489414
          CHANNELS 3 Zrotation Xrotation Yrotation
          JOINT Bip001_L_Clavicle
          {
            OFFSET 6.06036 -0.000579998 0.00836775
            CHANNELS 3 Zrotation Xrotation Yrotation
            JOINT Bip001_L_UpperArm
            {
              OFFSET 11.5509 -0.0600302 0.00193952
              CHANNELS 3 Zrotation Xrotation Yrotation
              JOINT Bip001_L_Forearm
              {
                OFFSET 25.9523 0.0806089 -2.15551
                CHANNELS 3 Zrotation Xrotation Yrotation
                JOINT Bip001_L_Hand
                {
                  OFFSET 32.2475 0.153767 1.63968
                  CHANNELS 3 Zrotation Xrotation Yrotation
                  JOINT Bip001_L_Finger0
                  {
                    OFFSET 6.04639 -2.20976 5.90322
                    CHANNELS 3 Zrotation Xrotation Yrotation
                    End Site
                    {
                      OFFSET 4.22375 -1.43895 0.606485
                    }
                  }
                  JOINT Bip001_L_Finger1
                  {
                    OFFSET 11.0826 -0.704819 -0.198153
                    CHANNELS 3 Zrotation Xrotation Yrotation
                    End Site
                    {
                      OFFSET 6.20027 -0.397518 -0.0787166
                    }
                  }
                }
              }
            }
          }
          JOINT Bip001_R_Clavicle
          {
            OFFSET -6.06037 -0.000563197 0.00835105
            CHANNELS 3 Zrotation Xrotation Yrotation
            JOINT Bip001_R_UpperArm
            {
              OFFSET -11.5509 -0.0599978 0.00190698
              CHANNELS 3 Zrotation Xrotation Yrotation
              JOINT Bip001_R_Forearm
              {
                OFFSET -25.9523 0.0806822 -2.15589
                CHANNELS 3 Zrotation Xrotation Yrotation
                JOINT Bip001_R_Hand
                {
                  OFFSET -32.2475 0.153859 1.63989
                  CHANNELS 3 Zrotation Xrotation Yrotation
                  JOINT Bip001_R_Finger0
                  {
                    OFFSET -6.04641 -2.20976 5.90317
                    CHANNELS 3 Zrotation Xrotation Yrotation
                    End Site
                    {
                      OFFSET -4.22376 -1.43895 0.60647
                    }
                  }
                  JOINT Bip001_R_Finger1
                  {
                    OFFSET -11.0826 -0.704794 -0.198182
                    CHANNELS 3 Zrotation Xrotation Yrotation
                    End Site
                    {
                      OFFSET -6.20028 -0.397504 -0.0787333
                    }
                  }
                }
              }
            }
          }
          JOINT Bip001_Head
          {
            OFFSET 1.09673e-005 11.2744 2.05948
            CHANNELS 3 Zrotation Xrotation Yrotation
            End Site
            {
              OFFSET 2.89576e-005 20.8808 -2.77728e-005
            }
          }
        }
      }
    }
  }
}
MOTION
Frames:	13
Frame Time:	0.04
34.5914 92.3179 -31.2531 -3.05615 -11.2695 -1.17639 0.0147892 3.44379 0.246911 12.582 -3.70581 10.8167 -5.38287 31.6242 0.0104686 8.02221 -14.691 0.644869 2.34045 -7.7529 -1.01458 -3.18313 -3.63868 0.919834 2.02878 28.786 1.82523 -12.0069 -12.656 -6.29098 4.06905 -12.9598 4.26965 0.00964576 6.88759 0.495065 0.0103144 6.88761 0.495033 7.90458 -7.78612 -8.30102 -27.944 6.48976 1.16426 -52.8266 38.873 9.7371 13.6719 -0.770325 -21.127 6.28189 1.68641 -3.20257 -3.18055e-015 -6.36111e-015 1.59028e-015 -6.36111e-015 -9.54167e-015 -1.59028e-015 5.57958 14.0325 27.8898 47.0169 -26.9176 34.3231 -30.6155 -9.33343 69.1773 -17.4238 -0.676554 6.57451 -3.18055e-015 0 1.59028e-015 -6.36111e-015 -3.18056e-015 -3.18055e-015 -6.03813 -1.88819 -4.95198 
33.5592 93.2268 -31.1207 -3.46535 -10.7419 0.283245 0.199058 3.32018 0.381388 12.8063 -2.94208 10.6852 -3.71274 28.0872 -2.64175 7.38468 -12.4629 0.467153 2.46785 -8.22052 -0.984395 -1.85662 -1.20679 -0.356982 1.31804 23.6467 1.75529 -11.1034 -11.135 -6.23545 3.73256 -12.1311 4.07797 0.376884 6.64158 0.7531 0.376884 6.64161 0.753103 7.25414 -8.82949 -9.69176 -27.658 7.02583 2.30128 -52.3142 37.5189 9.85332 12.774 -1.53256 -20.9318 6.16161 1.43786 -2.92442 -3.18055e-015 -9.54166e-015 3.18055e-015 1.76556e-031 -6.36111e-015 1.59028e-015 1.49788 14.1215 31.988 35.8378 -17.223 40.0231 -33.0174 -22.1434 44.6698 -12.5521 -4.65961 8.34763 -6.62086e-031 -7.95139e-015 -4.77083e-015 -0 -9.54167e-015 -0 -5.35968 -0.449595 -6.54614 
32.594 94.038 -31.0638 -3.5903 -9.80251 1.26562 0.290931 3.11564 0.51868 12.7093 -2.35772 9.92528 -2.61107 24.3225 -3.76958 6.14517 -10.3971 0.278108 2.13252 -7.99885 -0.665944 -0.798384 0.657171 -1.16782 0.702062 18.6072 1.69722 -10.0946 -9.55031 -6.08416 3.41285 -11.2596 3.79327 0.554584 6.23377 1.02391 0.554586 6.23378 1.02391 7.35034 -8.80601 -10.8586 -27.9873 6.51687 2.94606 -51.4919 36.6052 9.75224 11.779 -1.45369 -20.8244 6.11302 1.16238 -3.11543 1.59028e-015 -3.18055e-015 -1.59028e-015 1.59028e-015 -3.18056e-015 -1.59028e-015 -0.292442 13.6824 34.4594 52.2622 -36.4726 53.9344 -36.2857 -8.25059 45.6056 -2.67492 -5.33963 13.1747 3.18055e-015 6.36111e-015 1.59028e-015 3.18055e-015 9.54167e-015 -0 -4.86671 -0.169369 -7.71343 
31.9957 94.6995 -31.0975 -3.10765 -8.46919 1.89941 0.133717 2.83885 0.378077 11.7559 -1.89323 9.52806 -1.16018 20.369 -3.91648 3.90864 -8.62069 0.130049 1.7258 -7.23933 -0.491695 -0.533164 1.63873 -2.14377 0.106877 14.5205 1.31498 -8.95311 -8.43239 -5.0157 3.08718 -10.4475 3.62442 0.242775 5.67859 0.754015 0.24606 5.67857 0.752719 10.4044 -7.78397 -12.0599 -29.2249 4.65822 2.93262 -53.5228 35.065 11.6802 11.3502 -1.69208 -21.0952 6.86817 1.13021 -3.32318 -1.59028e-015 -6.36111e-015 -4.77083e-015 1.59028e-015 -6.36111e-015 -4.77083e-015 0.273167 13.4879 33.9763 30.5666 -39.2894 44.4577 -30.0888 -13.7597 41.123 -5.86064 -2.69114 9.62959 -1.27222e-014 0 -1.59028e-015 -9.54166e-015 -3.18056e-015 -3.18055e-015 -6.39451 -0.317756 -7.93284 
31.7186 95.2733 -31.1815 -2.43743 -7.33434 0.710584 0.224053 2.46288 0.134219 10.2068 -0.223398 10.4097 -0.115436 15.8736 -2.95204 1.09841 -7.46898 0.0560994 1.24712 -5.96356 -0.0634879 -1.4117 2.26981 -2.28604 0.0491507 11.3326 0.710348 -7.42633 -7.66329 -2.67038 2.73927 -9.3402 3.19862 0.449094 4.92617 0.255981 0.445816 4.9262 0.257234 11.2618 -7.11922 -11.7257 -29.9894 4.12719 1.94461 -57.1849 34.5312 16.5747 11.2564 -1.85153 -22.6152 6.93621 0.743156 -4.15949 1.59028e-015 3.18055e-015 3.18055e-015 1.59028e-015 6.36111e-015 1.59028e-015 -3.41638 10.3305 30.1576 17.6622 -31.2872 39.1946 -29.7189 -18.6517 34.2748 -16.8534 -2.54648 7.47932 -3.18055e-015 -1.59028e-015 -6.75868e-015 -3.18055e-015 -3.18056e-015 -4.37326e-015 -8.29651 0.915489 -6.68948 
31.3354 95.6982 -31.3203 -2.41842 -6.38534 -2.68527 0.493863 2.29335 -0.0852941 9.51755 2.0105 13.3283 -0.0329412 11.6146 -2.1392 -1.15319 -6.49862 0.0373652 0.489648 -4.69689 0.506322 -1.97775 2.33573 -1.48097 -0.0409391 8.47856 0.435877 -5.70831 -6.86633 0.276735 2.4509 -8.32609 2.66213 0.995156 4.58587 -0.196625 0.993511 4.58588 -0.193822 9.23578 -7.48185 -8.93217 -29.1569 5.62555 1.82554 -59.7383 37.1912 18.9882 12.1643 -1.52989 -21.8953 5.90382 -0.0330505 -5.70289 0 0 -0 -1.59028e-015 0 -0 -5.62362 9.94046 30.5546 15.0469 -31.4749 35.2106 -33.5204 -16.6488 36.5036 -11.2241 -3.33001 7.6965 -1.65521e-032 1.59028e-015 5.96354e-016 -3.5863e-032 7.95139e-016 2.5842e-015 -7.24017 2.70533 -4.66149 
30.8239 95.9034 -31.7215 -2.79396 -4.70941 -6.26785 0.597596 2.12087 -0.0573575 9.78324 2.64113 15.1923 -0.534158 8.95747 -0.589141 -1.69758 -5.28226 0.0538367 0.223954 -4.69527 0.811748 -1.76319 1.3322 0.747508 0.12009 6.00351 -0.145197 -4.47842 -5.96393 2.02449 2.14842 -7.43305 2.41163 1.19855 4.24101 -0.137013 1.19855 4.24102 -0.137014 8.39668 -8.66193 -7.05022 -27.9058 7.36063 2.16586 -60.7944 38.843 18.7377 13.0619 -0.125913 -20.2719 3.92381 0.218267 -5.94322 4.77083e-015 3.18055e-015 -3.18055e-015 3.18055e-015 3.18056e-015 -2.38542e-015 -6.02366 10.8425 28.1944 12.0563 -31.0103 36.0219 -36.7356 -11.7115 35.9323 -1.66918 -5.66222 8.0558 3.18055e-015 -4.96962e-016 -3.97569e-016 1.03451e-032 3.97569e-016 -1.49088e-015 -6.07933 3.297 -3.36005 
30.6034 95.9623 -32.1071 -2.62256 -3.42606 -8.38758 0.593912 1.78587 0.0697291 9.30765 2.55002 15.2583 -0.180832 7.69971 1.13726 -1.81282 -4.42966 0.0633937 0.193672 -4.89249 0.984174 -2.05453 0.169434 0.696253 0.424782 5.42852 0.214926 -3.65968 -5.8586 3.63351 1.97386 -6.91225 2.27197 1.19093 3.57234 0.121555 1.18672 3.57235 0.121302 10.5176 -8.25006 -6.62681 -29.2254 7.15611 0.548083 -62.2881 38.6528 19.3177 14.3171 2.44054 -19.2673 3.36791 0.195089 -5.38777 0 0 -0 -8.82782e-032 3.18056e-015 1.59028e-015 -5.61735 10.5565 24.344 8.91221 -29.4923 38.3575 -36.9193 -8.01535 37.2545 5.71712 -10.2459 2.95013 -3.18055e-015 2.38542e-015 3.97569e-016 -6.36111e-015 1.59028e-015 -3.97569e-016 -7.54155 2.87174 -2.11051 
30.395 95.9134 -32.391 -2.49702 -2.89327 -9.85312 0.660931 1.70337 -0.0625717 8.96944 2.12449 15.085 0.209119 7.98627 2.79653 -1.87029 -4.2671 0.0637366 0.248095 -4.99482 1.02453 -2.21777 -1.13519 -0.018845 0.366712 6.49399 0.496746 -3.18048 -6.49757 5.62764 1.88999 -6.64932 2.18941 1.31429 3.40612 -0.145518 1.32044 3.40611 -0.144809 10.8071 -7.7744 -5.58907 -29.4838 7.20724 -0.587512 -61.4025 38.2316 17.5483 14.4226 2.93529 -18.617 3.81812 0.737032 -4.73127 -1.59028e-015 -3.18055e-015 -0 1.59028e-015 -6.36111e-015 -0 -4.90942 10.1547 21.9693 14.1106 -29.4521 40.0922 -37.2105 -6.90929 43.6726 8.56434 -11.5281 0.876165 -1.98626e-031 3.57812e-015 3.18055e-015 -6.36111e-015 7.95139e-016 4.37326e-015 -7.34223 1.81615 -1.17013 
30.2163 95.8506 -32.8433 -2.34276 -2.632 -11.428 0.645598 1.88969 -0.284898 8.90197 1.45416 15.3908 0.209644 8.68814 4.19085 -1.39147 -3.8799 0.0637791 0.492104 -5.30248 0.886104 -2.18683 -2.8509 1.49689 0.471341 8.01094 0.628177 -3.2847 -6.91372 5.75781 1.86617 -6.54607 2.1364 1.305 3.77605 -0.591386 1.30466 3.77604 -0.591664 8.83021 -7.82982 -3.95524 -28.3691 8.02804 -1.01241 -58.1587 37.6388 14.0809 14.2646 1.8394 -19.0315 5.0203 0.923736 -4.24548 -3.18055e-015 3.18055e-015 1.59028e-015 -6.36111e-015 3.18056e-015 -1.59028e-015 -1.46242 11.022 21.2701 17.5082 -29.0788 37.4573 -38.9577 -6.59627 49.177 8.14476 -10.3378 5.82517 3.18055e-015 3.57812e-015 7.95139e-016 -6.89673e-032 1.98785e-015 1.98785e-015 -4.49098 0.399428 -0.768105 
29.9577 95.7523 -33.1212 -2.41146 -2.7492 -12.9644 0.553436 2.13993 -0.419891 9.28525 1.35987 17.0432 0.110049 9.37639 4.18998 -1.45174 -4.16208 0.0607926 0.550645 -5.36747 0.843304 -1.71692 -3.99256 3.51482 0.45938 9.34421 0.752302 -3.61221 -7.24342 5.28437 1.87315 -6.58562 2.13363 1.12373 4.27562 -0.861347 1.12373 4.27562 -0.861355 7.17623 -7.97712 -2.81787 -27.1923 8.63302 -1.10411 -54.5581 36.9795 10.8682 13.6609 -0.403282 -20.8882 6.32193 1.1484 -3.8166 -3.18055e-015 6.36111e-015 -3.18055e-015 7.94503e-031 9.54167e-015 -4.77083e-015 3.8452 12.55 21.8952 21.3289 -31.5145 32.4534 -41.7441 -3.2228 57.7558 5.68732 -9.55345 11.3686 1.59028e-014 -5.96354e-016 -1.19271e-015 1.27222e-014 -7.95139e-016 -2.38542e-015 -2.23503 -0.787762 -0.580782 
29.8669 95.654 -33.2689 -2.12285 -2.95839 -13.3251 0.36229 2.35121 -0.553627 9.12625 1.15763 17.0752 0.219764 9.64339 4.59134 -1.11399 -4.03987 0.0530021 0.668091 -5.53849 0.764883 -1.79743 -4.90548 3.43012 0.535918 10.8155 0.830971 -3.71499 -7.97907 5.65448 1.86733 -6.5434 2.1323 0.748268 4.69875 -1.12357 0.748269 4.69875 -1.12357 7.215 -7.8761 -2.41198 -27.5072 8.76336 -1.64069 -51.1687 36.7628 7.5542 12.8319 -3.55262 -23.1084 7.72005 1.11791 -3.78329 -3.18055e-015 6.36111e-015 -3.18055e-015 -3.18055e-015 6.36111e-015 -1.59028e-015 9.68888 13.9542 21.3818 22.5589 -33.0728 26.0017 -42.6629 -0.379023 66.1397 -3.98767 -9.06706 11.2664 -3.18055e-015 7.95139e-016 7.95139e-016 -3.31043e-032 1.19271e-015 1.59028e-015 -1.62468 -2.54676 -0.346914 
29.8462 95.5797 -33.3196 -1.98458 -3.20819 -13.485 0.264235 2.57792 -0.688801 9.06323 0.947385 16.8547 0.191473 10.0878 5.11306 -0.930243 -4.08177 0.0468886 0.772469 -5.62393 0.663113 -1.8182 -5.51041 3.66494 0.582664 11.9056 1.18451 -4.02519 -8.37352 5.32984 1.8822 -6.61869 2.17385 0.553769 5.15248 -1.39043 0.560461 5.15247 -1.39093 6.73454 -8.24375 -1.7885 -27.7239 9.40118 -1.90973 -47.9148 36.4691 4.26376 12.35 -5.83414 -25.5759 9.9079 0.362705 -4.64265 3.18055e-015 -3.18055e-015 1.59028e-015 3.18055e-015 0 -0 15.1096 15.2242 19.8345 24.8977 -33.7107 18.9262 -42.4563 2.58302 73.0481 -15.1571 -7.08601 9.00324 -3.18055e-015 -1.59028e-015 -7.95139e-016 -3.18055e-015 -1.59028e-015 1.59028e-015 -1.25376 -3.86138 0.0370808 
